<?xml version="1.0" standalone="no"?><!DOCTYPE svg PUBLIC "-//W3C//DTD SVG 1.1//EN" "http://www.w3.org/Graphics/SVG/1.1/DTD/svg11.dtd"><svg t="1483944283071" class="icon" style="" viewBox="0 0 1024 1024" version="1.1" xmlns="http://www.w3.org/2000/svg" p-id="2099" xmlns:xlink="http://www.w3.org/1999/xlink" width="35" height="35"><defs><style type="text/css"></style></defs><path d="M952 430.6L835.1 325.7c0.6-3.3 0-6.6 0-9.9V170.5c0-33.5-26.8-60.6-59.6-60.6-33 0-59.8 27.1-59.8 60.6v49.7L561.8 83.3c-30.6-31.1-80.3-31.1-111 0L65.2 420.9c-30.7 31.1-30.7 76.6 0 107.8l105.9 42.6v309.4c0 42.8 34.2 77.5 76.4 77.5h515.8c42.3 0 76.4-34.7 76.4-77.5V582L952 538.4c30.7-31.1 30.7-76.7 0-107.8m-304 17.6c26.6 0 48.2 21.6 48.2 48.2s-21.5 48.2-48.2 48.2c-26.5 0-48.2-21.6-48.2-48.2 0.1-26.7 21.7-48.2 48.2-48.2m-278.7 0c26.6 0 48.2 21.6 48.2 48.2s-21.6 48.2-48.2 48.2-48.2-21.6-48.2-48.2c-0.1-26.7 21.5-48.2 48.2-48.2m371.6 269.4C684.9 790.4 600 845 508.3 845H508c-90.8 0-175-53.9-231.1-125.5-11-14.1-8.6-34.6 5.6-45.7 5.9-4.5 12.7-6.8 19.7-6.9 9.9-0.2 19.8 4 26.4 12.5 43.6 55.6 109 87.6 179.6 87.6 71.4-0.1 137.3-32.5 180.8-89.2 6.5-8.5 16.4-12.9 26.4-12.8 6.8 0.1 13.6 2.2 19.6 6.9 14.1 10.8 16.9 31.4 5.9 45.7m0 0z" p-id="2100" fill="#ffffff"></path></svg>